# xmcd
#
# Track frame offsets: 
#        150
#        18105
#        38882
#        56725
#        77570
#        99330
#        112452
#        129522
#        145322
#        163747
#
# Disc length: 2448 seconds
#
# Revision: 0
# Processed by: cddbd v1.5.2PL0 Copyright (c) Steve Scherf et al.
# Submitted via: ExactAudioCopy v0.95b4
#
DISCID=84098e0a
DTITLE=Basilis Skoulas - DROSOSTALIDES
DYEAR=1900
DGENRE=Folk
TTITLE0=Drosostalida
TTITLE1=Polles fores feggari mou
TTITLE2=Otan tha papsei o erotas
TTITLE3=Kontylies(45 kynigoi)
TTITLE4=Genethleia
TTITLE5=Nani nani
TTITLE6=Pos na se balo sthn kardia
TTITLE7=Sth xora sto Balide Tzami
TTITLE8=Dromenos topia to nero
TTITLE9=Kontylies
EXTD=
EXTT0=
EXTT1=
EXTT2=
EXTT3=
EXTT4=
EXTT5=
EXTT6=
EXTT7=
EXTT8=
EXTT9=
PLAYORDER=
